<svg xmlns="http://www.w3.org/2000/svg" viewBox="0 0 512 512">
  <path
    fill="#111111"
    d="M256 36C135.6 36 38 133.6 38 254c0 96.5 62.6 178.2 149.5 207.1 10.9 2 14.9-4.7 14.9-10.5 0-5.2-.2-22.5-.3-40.8-60.8 13.2-73.7-25.8-73.7-25.8-9.9-25.2-24.2-31.9-24.2-31.9-19.8-13.5 1.5-13.2 1.5-13.2 21.9 1.5 33.5 22.5 33.5 22.5 19.5 33.4 51.1 23.8 63.6 18.2 2-14.1 7.6-23.8 13.8-29.2-48.5-5.5-99.5-24.2-99.5-107.9 0-23.8 8.5-43.3 22.5-58.6-2.3-5.5-9.7-27.8 2.1-57.8 0 0 18.3-5.9 60 22.4 17.4-4.8 36.1-7.2 54.7-7.3 18.6.1 37.3 2.5 54.8 7.3 41.6-28.3 59.9-22.4 59.9-22.4 11.9 30 4.4 52.3 2.2 57.8 14 15.3 22.4 34.8 22.4 58.6 0 83.9-51.1 102.3-99.8 107.7 7.8 6.8 14.8 20.1 14.8 40.5 0 29.3-.3 52.9-.3 60.1 0 5.8 3.9 12.6 15 10.5C411.4 432.1 474 350.4 474 254 474 133.6 376.4 36 256 36Z"
  />
  <path
    fill="#111111"
    d="M103 344c-17 2-32-1-46-9-11-7-21 10-10 20 19 17 45 22 72 14l-16-25Zm306 0c17 2 32-1 46-9 11-7 21 10 10 20-19 17-45 22-72 14l16-25ZM148 388c-30 27-62 42-96 42-16 0-17 24-1 27 43 7 86-11 124-48l-27-21Zm216 0c30 27 62 42 96 42 16 0 17 24 1 27-43 7-86-11-124-48l27-21Z"
  />
</svg>